# xmcd
#
# Track frame offsets: 
#        150
#        13772
#        29200
#        43752
#        57962
#        72250
#        87512
#        100337
#        113330
#        126700
#        140707
#        152482
#        166907
#        179532
#        193932
#        206442
#        221782
#        237187
#        251930
#        266215
#        280880
#        295550
#        308445
#        322062
#
# Disc length: 4466 seconds
#
# Revision: 2
# Processed by: cddbd v1.5.2PL0 Copyright (c) Steve Scherf et al.
# Submitted via: ExactAudioCopy v1.0b1
#
DISCID=79117018
DTITLE=Tampa Red - The Bluebird Recordings  1934 - 1936  [CD1]
DYEAR=1997
DGENRE=Blues
TTITLE0=I'll Kill Your Soul (And Dare Your Spirit To Move) (mono)
TTITLE1=If I Let You Get Away With It (You'll Do It All The Time) (mon
TTITLE1=o)
TTITLE2=I'll Find My Way (mono)
TTITLE3=You've Got To Do Better (mono)
TTITLE4=Kingfish Blues (mono)
TTITLE5=You Don't Want Me Blues (mono)
TTITLE6=Nobody's Sweetheart Now (mono)
TTITLE7=I'm Just Crazy 'Bout You (mono)
TTITLE8=I Still Got California On My Mind (mono)
TTITLE9=Grievin' and Worryin' Blues (mono)
TTITLE10=Give It Up Buddy and Get Goin' (mono)
TTITLE11=Somebody's Been Usin' That Thing (mono)
TTITLE12=Mean Mistreater Blues (mono)
TTITLE13=Happy Jack (mono)
TTITLE14=I'm So Disappointed In You (mono)
TTITLE15=Worried Devil Blues (mono)
TTITLE16=Christmas and New Year's Blues (mono)
TTITLE17=Sweet Woman (mono)
TTITLE18=I'll Get A Break Someday (mono)
TTITLE19=Witchin' Hour Blues (mono)
TTITLE20=Stockyard Fire (mono)
TTITLE21=Worthy Of You (mono)
TTITLE22=If It Ain't That Gal Of Mine (mono)
TTITLE23=Mean Old Tom Cat Blues (mono)
EXTD=RCA 07863 66721-2\n\nSubmitted 7/9/97\n[Jmccoy@efn.org]
EXTT0=
EXTT1=
EXTT2=
EXTT3=
EXTT4=
EXTT5=
EXTT6=
EXTT7=
EXTT8=
EXTT9=
EXTT10=
EXTT11=
EXTT12=
EXTT13=
EXTT14=
EXTT15=
EXTT16=
EXTT17=
EXTT18=
EXTT19=
EXTT20=
EXTT21=
EXTT22=
EXTT23=
PLAYORDER=
